<?xml version="1.0" encoding="utf-8"?>
<!-- Generator: Adobe Illustrator 24.0.1, SVG Export Plug-In . SVG Version: 6.00 Build 0)  -->
<svg version="1.1" id="uikit_placeholder" xmlns="http://www.w3.org/2000/svg" xmlns:xlink="http://www.w3.org/1999/xlink" x="0px"
	 y="0px" viewBox="0 0 479.2 193.9" style="enable-background:new 0 0 479.2 193.9;" xml:space="preserve">
<style type="text/css">
	.st0{fill:#F5F5F5;}
</style>
<g>
	<g>
		<path class="st0" d="M25.3,131.5c-3.8,0-7.2-0.6-10.3-1.9c-3.1-1.2-5.8-3.1-8-5.4c-2.2-2.4-3.9-5.3-5.2-8.8
			c-1.2-3.5-1.8-7.5-1.8-12s0.7-8.5,2.1-12s3.2-6.4,5.6-8.8c2.3-2.4,5-4.2,8.2-5.4c3.1-1.2,6.4-1.9,9.9-1.9c2.2,0,4.2,0.2,6,0.5
			s3.3,0.7,4.7,1.1c1.3,0.4,2.4,0.8,3.2,1.2s1.4,0.7,1.7,0.9l-2.2,6.2c-0.5-0.3-1.1-0.6-2-1s-1.9-0.7-3-1.1
			c-1.1-0.4-2.3-0.7-3.7-0.9c-1.3-0.2-2.7-0.3-4-0.3c-2.8,0-5.4,0.5-7.7,1.5s-4.2,2.4-5.8,4.3c-1.6,1.9-2.8,4.1-3.7,6.8
			c-0.9,2.7-1.3,5.7-1.3,9c0,3.2,0.4,6.1,1.1,8.8c0.8,2.6,1.9,4.9,3.4,6.8s3.4,3.4,5.6,4.4c2.3,1,4.9,1.6,7.9,1.6
			c3.5,0,6.3-0.4,8.6-1.1c2.3-0.7,4-1.4,5.1-1.9l1.9,6.2c-0.4,0.3-1,0.6-1.9,1s-2.1,0.8-3.5,1.1c-1.4,0.4-3,0.7-4.9,0.9
			C29.5,131.4,27.5,131.5,25.3,131.5z"/>
		<path class="st0" d="M46.6,103.4c0-4.6,0.7-8.7,2.1-12.2c1.4-3.5,3.2-6.5,5.6-8.8c2.4-2.4,5.1-4.1,8.2-5.3s6.5-1.8,10-1.8
			s6.7,0.6,9.8,1.8c3.1,1.2,5.8,3,8.1,5.3c2.3,2.4,4.2,5.3,5.6,8.8s2.1,7.6,2.1,12.2c0,4.6-0.7,8.7-2.1,12.2s-3.2,6.5-5.6,8.8
			c-2.3,2.4-5,4.1-8.1,5.3c-3.1,1.2-6.4,1.8-9.8,1.8c-3.5,0-6.8-0.6-10-1.8c-3.1-1.2-5.9-3-8.2-5.3c-2.4-2.4-4.2-5.3-5.6-8.8
			S46.6,108,46.6,103.4z M54.5,103.4c0,3.3,0.4,6.2,1.2,8.9c0.8,2.7,2,4.9,3.5,6.8s3.4,3.3,5.6,4.3s4.7,1.5,7.4,1.5
			c2.7,0,5.2-0.5,7.4-1.5c2.2-1,4-2.4,5.6-4.3c1.5-1.9,2.7-4.1,3.5-6.8c0.8-2.7,1.2-5.6,1.2-8.9c0-3.3-0.4-6.2-1.2-8.9
			c-0.8-2.7-2-4.9-3.5-6.8c-1.5-1.9-3.4-3.3-5.6-4.3s-4.6-1.5-7.4-1.5c-2.7,0-5.2,0.5-7.4,1.5c-2.2,1-4.1,2.4-5.6,4.3
			c-1.5,1.9-2.7,4.1-3.5,6.8C54.9,97.2,54.5,100.2,54.5,103.4z"/>
		<path class="st0" d="M153.4,103.4c0,4.7-0.7,8.7-2.2,12.2c-1.5,3.4-3.5,6.3-6.1,8.5c-2.6,2.3-5.8,3.9-9.5,5s-7.7,1.7-12.1,1.7
			c-2.2,0-4.6-0.1-7.2-0.3c-2.6-0.2-5-0.5-7.1-1V77.3c2.1-0.5,4.5-0.9,7.1-1c2.6-0.2,5-0.3,7.2-0.3c4.4,0,8.4,0.6,12.1,1.7
			c3.7,1.1,6.8,2.8,9.5,5c2.6,2.3,4.7,5.1,6.1,8.5C152.7,94.7,153.4,98.8,153.4,103.4z M124.1,124.2c7.1,0,12.5-1.8,16-5.5
			s5.3-8.8,5.3-15.3c0-6.6-1.8-11.7-5.3-15.3s-8.9-5.5-16-5.5c-2.1,0-3.8,0-4.9,0.1c-1.2,0.1-2,0.1-2.4,0.2v41.2
			c0.5,0.1,1.3,0.1,2.4,0.2C120.3,124.2,122,124.2,124.1,124.2z"/>
		<path class="st0" d="M164.6,130.4V76.6h32.9V83h-25.3v16h22.5v6.3h-22.5v18.6h11.6l-4.4,6.4h-14.8V130.4z"/>
	</g>
	<g>
		<path class="st0" d="M257.3,124.7c-1.4-3.5-3.5-6.3-6.2-8.5s-5.9-3.9-9.7-4.9c-2.3-0.6-4.8-1.1-7.4-1.3l-20,20.5l-1.7-1.8v34.8
			c2.8,0.6,5.6,1,8.5,1.1c2.9,0.2,5.4,0.3,7.6,0.3c4.8,0,9.1-0.6,12.9-1.7c3.8-1.1,7.1-2.9,9.8-5.1c2.7-2.3,4.7-5.1,6.2-8.6
			c1.4-3.5,2.2-7.5,2.2-12.2C259.4,132.3,258.7,128.2,257.3,124.7z M242.5,149.9c-2.9,3.1-7.4,4.6-13.5,4.6c-1,0-1.9,0-2.7,0
			c-0.7,0-1.4-0.1-2-0.1v-34c0.8-0.1,1.6-0.2,2.5-0.2s1.7,0,2.6,0c6.1,0,10.5,1.4,13.3,4.3c2.8,2.9,4.2,7.2,4.2,12.8
			C246.9,142.6,245.5,146.8,242.5,149.9z"/>
		<path class="st0" d="M269.5,164.1v-53.8h36.3v10.2h-24.2v10.6h21.5v9.9h-21.5v13h26v10.2h-38.1L269.5,164.1L269.5,164.1z"/>
		<path class="st0" d="M333.5,164.1c-2.1-4.5-4.3-9.2-6.3-14.1c-2.1-4.9-4.1-9.7-5.9-14.4c-1.9-4.8-3.6-9.3-5.2-13.7
			c-1.6-4.4-2.9-8.2-4.1-11.7h13.4c1,3.1,2.1,6.5,3.4,10.1c1.2,3.6,2.5,7.2,3.8,10.7c1.3,3.6,2.5,7,3.7,10.3s2.3,6.1,3.4,8.5
			c1-2.4,2.1-5.2,3.3-8.4c1.2-3.3,2.4-6.7,3.7-10.3c1.3-3.6,2.5-7.1,3.8-10.7c1.2-3.6,2.4-7,3.4-10.1h12.9
			c-1.2,3.4-2.6,7.3-4.2,11.7c-1.6,4.3-3.3,8.9-5.1,13.7c-1.9,4.8-3.8,9.6-5.9,14.4c-2.1,4.9-4.2,9.6-6.3,14.1h-11.8L333.5,164.1
			L333.5,164.1z"/>
		<path class="st0" d="M373.5,110.3h12.1v53.8h-12.1V110.3z"/>
		<path class="st0" d="M434,153.7v10.4h-36v-53.8h12.1v43.4H434z"/>
		<path class="st0" d="M457.8,154.9c1.7,0,3.1-0.1,4.2-0.4s2-0.7,2.7-1.2s1.1-1.1,1.4-1.7c0.3-0.7,0.4-1.4,0.4-2.3
			c0-1.8-0.8-3.2-2.5-4.4c-1.7-1.2-4.5-2.4-8.5-3.8c-1.8-0.6-3.5-1.3-5.3-2.1c-1.8-0.8-3.3-1.8-4.7-3c-1.4-1.2-2.5-2.7-3.4-4.4
			c-0.9-1.7-1.3-3.8-1.3-6.3s0.5-4.7,1.4-6.7s2.3-3.7,4-5.1s3.8-2.5,6.2-3.2c2.4-0.8,5.2-1.1,8.2-1.1c3.6,0,6.8,0.4,9.4,1.2
			c2.6,0.8,4.8,1.6,6.5,2.6l-3.5,9.6c-1.5-0.8-3.2-1.5-5-2.1s-4.1-0.9-6.6-0.9c-2.9,0-5,0.4-6.3,1.2c-1.3,0.8-1.9,2-1.9,3.7
			c0,1,0.2,1.8,0.7,2.5s1.1,1.3,2,1.8s1.8,1,3,1.5c1.1,0.4,2.3,0.9,3.7,1.4c2.8,1,5.2,2.1,7.3,3.1c2.1,1,3.8,2.2,5.2,3.5
			c1.4,1.3,2.4,2.9,3.1,4.7c0.7,1.8,1,4,1,6.6c0,5-1.8,8.9-5.3,11.7c-3.5,2.8-8.8,4.2-15.9,4.2c-2.4,0-4.5-0.1-6.4-0.4
			s-3.6-0.6-5.1-1s-2.7-0.9-3.8-1.3c-1.1-0.5-2-0.9-2.7-1.3l3.4-9.6c1.6,0.9,3.6,1.7,5.9,2.4C451.5,154.6,454.4,154.9,457.8,154.9z"
			/>
	</g>
	<g>
		<g>
			<polygon class="st0" points="131.2,191.1 129.1,189.1 201.8,116.3 213.8,128.3 263.7,78.4 265.8,80.5 213.8,132.4 201.8,120.5 
							"/>
		</g>
		<g>
			<polygon class="st0" points="284.2,101 270.4,87.1 262.5,95.1 260.4,93 270.4,83 284.2,96.8 316.6,64.5 281.3,87.6 267.8,74.2 
				297.8,44.2 303,53 315.2,23.5 285.6,35.7 294.4,40.8 285.4,49.9 283.3,47.8 289.7,41.4 279,35.2 320.6,18.1 303.4,59.6 
				297.2,48.9 272,74.2 281.7,83.8 338.7,46.5 			"/>
		</g>
		<g>
			<polygon class="st0" points="244.4,90.8 242.3,88.7 257.1,73.9 237.7,54.4 292.1,0 254.8,57 264.5,66.7 272.4,58.8 274.4,60.8 
				264.5,70.8 251.1,57.4 274.2,22 241.8,54.4 261.3,73.9 			"/>
		</g>
		<g>
			<polygon class="st0" points="144.1,167.2 142,165.1 201.9,105.2 213.9,117.2 228,103 230.1,105.1 213.9,121.3 201.9,109.3 			"/>
		</g>
		<g>
			<circle class="st0" cx="143.2" cy="166" r="4"/>
		</g>
		<g>
			<path class="st0" d="M133.2,192.7c-1.6,1.6-4.1,1.6-5.6,0c-1.6-1.6-1.6-4.1,0-5.6c1.6-1.6,4.1-1.6,5.6,0
				C134.8,188.6,134.8,191.1,133.2,192.7z"/>
		</g>
		<g>
			<path class="st0" d="M245.8,92.8c-1.6,1.6-4.1,1.6-5.6,0c-1.6-1.6-1.6-4.1,0-5.6c1.6-1.6,4.1-1.6,5.6,0
				C247.4,88.7,247.4,91.2,245.8,92.8z"/>
		</g>
		<g>
			<path class="st0" d="M266.3,83.5c-1.6,1.6-4.1,1.6-5.6,0c-1.6-1.6-1.6-4.1,0-5.6c1.6-1.6,4.1-1.6,5.6,0
				C267.9,79.4,267.9,81.9,266.3,83.5z"/>
		</g>
		<g>
			<path class="st0" d="M285.7,52.9c-1.6,1.6-4.1,1.6-5.6,0c-1.6-1.6-1.6-4.1,0-5.6c1.6-1.6,4.1-1.6,5.6,0
				C287.3,48.8,287.3,51.4,285.7,52.9z"/>
		</g>
		<g>
			<path class="st0" d="M276.1,62.7c-1.6,1.6-4.1,1.6-5.6,0c-1.6-1.6-1.6-4.1,0-5.6c1.6-1.6,4.1-1.6,5.6,0
				C277.7,58.6,277.7,61.1,276.1,62.7z"/>
		</g>
		<g>
			<path class="st0" d="M263.8,97.3c-1.6,1.6-4.1,1.6-5.6,0c-1.6-1.6-1.6-4.1,0-5.6c1.6-1.6,4.1-1.6,5.6,0
				C265.3,93.2,265.3,95.8,263.8,97.3z"/>
		</g>
		<g>
			<path class="st0" d="M231.8,106.8c-1.6,1.6-4.1,1.6-5.6,0c-1.6-1.6-1.6-4.1,0-5.6c1.6-1.6,4.1-1.6,5.6,0
				C233.4,102.7,233.4,105.2,231.8,106.8z"/>
		</g>
	</g>
</g>
</svg>
